<svg width="468" height="354" viewBox="0 0 468 354" fill="none" xmlns="http://www.w3.org/2000/svg">
<g clip-path="url(#clip0_449_165)">
<mask id="mask0_449_165" style="mask-type:luminance" maskUnits="userSpaceOnUse" x="260" y="121" width="119" height="104">
<path d="M285.919 121.664L378.237 155.265L353.164 224.151L260.846 190.55L285.919 121.664Z" fill="white"/>
</mask>
<g mask="url(#mask0_449_165)">
<path fill-rule="evenodd" clip-rule="evenodd" d="M290.028 196.853C273.159 195.7 259.211 180.111 271.21 166.647C277.156 159.977 291.609 162.081 300.265 155.656C306.147 151.286 312.786 140.019 323.315 138.474C331.152 137.327 344.006 139.574 348.445 155.433C351.021 164.675 346.864 176.34 350.99 183.693C362.8 204.734 361.049 233.915 331.258 214.738C314.412 203.899 309.069 198.15 290.028 196.853Z" fill="#F0D8A6"/>
</g>
<path fill-rule="evenodd" clip-rule="evenodd" d="M300.684 114.699C304.258 129.932 328.215 131.602 336.729 121.792C342.465 115.19 348 94.3789 342.255 83.2419C336.465 71.9997 327.648 74.1699 319.611 81.1596C308.752 90.601 299.318 108.841 300.684 114.699Z" fill="#F0D8A6"/>
<path fill-rule="evenodd" clip-rule="evenodd" d="M263.699 148.788C255.919 137.982 269.184 101.108 286.874 103.364C297.537 104.212 302.747 136.913 291.506 149.083C284.28 156.91 270.12 157.712 263.699 148.788Z" fill="#F0D8A6"/>
<path fill-rule="evenodd" clip-rule="evenodd" d="M332.555 71.2918C323.517 72.3975 343.753 47.5539 358.014 44.7356C347.668 56.5633 347.196 70.53 343.265 75.2556C342.583 76.074 341.893 76.1164 341.25 75.6924C339.313 74.4218 338.881 72.294 332.555 71.2918Z" fill="#F0D8A6"/>
<path fill-rule="evenodd" clip-rule="evenodd" d="M282.796 98.1108C273.241 99.6481 291.682 76.0105 302.159 72.3012C297.923 82.6821 295.562 97.8195 293.037 100.577C292.549 101.108 291.222 100.153 289.739 99.2668C287.465 97.9086 285.73 97.6381 282.796 98.1108Z" fill="#F0D8A6"/>
<path fill-rule="evenodd" clip-rule="evenodd" d="M377.257 142.634C364.557 151.773 345.394 137.3 345.416 124.308C345.427 115.56 354.925 96.2352 366.57 91.6074C378.321 86.9352 383.543 94.3629 385.012 104.909C387.002 119.162 382.137 139.115 377.257 142.634Z" fill="#F0D8A6"/>
<path fill-rule="evenodd" clip-rule="evenodd" d="M378.428 193.806C391.591 191.816 408.685 156.55 394.707 145.481C386.653 138.445 359.623 157.582 358.779 174.123C358.236 184.766 367.558 195.45 378.428 193.806Z" fill="#F0D8A6"/>
<mask id="mask1_449_165" style="mask-type:luminance" maskUnits="userSpaceOnUse" x="368" y="52" width="29" height="39">
<path d="M379.956 52.2126L396.198 58.1241L384.242 90.9726L368 85.0611L379.956 52.2126Z" fill="white"/>
</mask>
<g mask="url(#mask1_449_165)">
<path fill-rule="evenodd" clip-rule="evenodd" d="M381.731 88.9707C387.826 95.7391 388.885 63.7136 379.978 52.2214C380.014 67.9348 371.194 78.779 371.055 84.9239C371.031 85.9888 371.523 86.4696 372.288 86.5766C374.585 86.8892 376.307 85.5687 381.731 88.9707Z" fill="#F0D8A6"/>
</g>
<path fill-rule="evenodd" clip-rule="evenodd" d="M401.314 144.72C406.895 152.629 410.906 122.921 406.235 112.834C401.774 123.12 392.602 135.391 392.395 139.124C392.353 139.842 393.968 140.123 395.635 140.566C398.196 141.242 399.598 142.291 401.314 144.72Z" fill="#F0D8A6"/>
</g>
<g clip-path="url(#clip1_449_165)">
<mask id="mask2_449_165" style="mask-type:luminance" maskUnits="userSpaceOnUse" x="83" y="220" width="118" height="104">
<path d="M83.1948 254.417L175.513 220.816L200.585 289.702L108.267 323.303L83.1948 254.417Z" fill="white"/>
</mask>
<g mask="url(#mask2_449_165)">
<path fill-rule="evenodd" clip-rule="evenodd" d="M134.673 309.373C121.009 319.333 100.304 316.357 100.842 298.331C101.11 289.399 113.533 281.72 116.034 271.234C117.731 264.106 115.575 251.207 122.647 243.256C127.914 237.34 139.205 230.799 152.799 240.094C160.713 245.518 165.027 257.126 172.914 260.107C195.485 268.634 212.901 292.113 177.753 296.572C157.881 299.097 150.093 298.128 134.673 309.373Z" fill="#F0D8A6"/>
</g>
<path fill-rule="evenodd" clip-rule="evenodd" d="M90.0288 239.59C102.558 248.962 121.983 234.842 122.2 221.854C122.35 213.11 113.213 193.61 101.653 188.771C89.992 183.881 84.6325 191.211 82.9684 201.732C80.7193 215.944 85.2162 235.981 90.0288 239.59Z" fill="#F0D8A6"/>
<path fill-rule="evenodd" clip-rule="evenodd" d="M83.6081 289.477C70.703 286.2 57.1625 249.426 72.1632 239.784C80.8771 233.579 105.888 255.281 105.099 271.829C104.595 282.47 94.2639 292.186 83.6081 289.477Z" fill="#F0D8A6"/>
<path fill-rule="evenodd" clip-rule="evenodd" d="M86.5414 185.852C80.3289 192.508 79.8609 160.47 88.974 149.144C88.6518 164.855 97.2672 175.858 97.2935 182.004C97.2973 183.069 96.7962 183.545 96.0309 183.634C93.7301 183.906 92.0318 182.553 86.5414 185.852Z" fill="#F0D8A6"/>
<path fill-rule="evenodd" clip-rule="evenodd" d="M65.6624 238.381C59.3311 245.701 58.2641 215.739 63.9056 206.163C67.3332 216.839 75.2551 229.952 75.0926 233.687C75.0604 234.408 73.4305 234.53 71.7247 234.803C69.1098 235.225 67.6062 236.133 65.6624 238.381Z" fill="#F0D8A6"/>
<path fill-rule="evenodd" clip-rule="evenodd" d="M166.643 211.769C162.789 226.933 138.805 228.165 130.472 218.198C124.857 211.49 119.711 190.58 125.657 179.55C131.656 168.418 140.43 170.751 148.334 177.886C159.021 187.526 168.119 205.937 166.643 211.769Z" fill="#F0D8A6"/>
<path fill-rule="evenodd" clip-rule="evenodd" d="M200.433 250.217C209.237 240.231 199.664 202.228 181.84 202.734C171.148 202.521 162.743 234.555 172.729 247.769C179.154 256.271 193.163 258.463 200.433 250.217Z" fill="#F0D8A6"/>
<mask id="mask3_449_165" style="mask-type:luminance" maskUnits="userSpaceOnUse" x="110" y="134" width="29" height="40">
<path d="M110.589 140.768L126.83 134.856L138.786 167.705L122.545 173.616L110.589 140.768Z" fill="white"/>
</mask>
<g mask="url(#mask3_449_165)">
<path fill-rule="evenodd" clip-rule="evenodd" d="M135.576 167.785C144.596 169.052 124.821 143.839 110.611 140.761C120.739 152.774 120.953 166.751 124.797 171.547C125.463 172.379 126.149 172.431 126.803 172.021C128.764 170.784 129.234 168.666 135.576 167.785Z" fill="#F0D8A6"/>
</g>
<path fill-rule="evenodd" clip-rule="evenodd" d="M186.413 197.904C195.771 200.375 179.748 175.039 169.687 170.314C172.881 181.061 173.742 196.357 175.983 199.351C176.413 199.927 177.83 199.104 179.392 198.373C181.788 197.244 183.537 197.146 186.413 197.904Z" fill="#F0D8A6"/>
</g>
<defs>
<clipPath id="clip0_449_165">
<rect width="200" height="200" fill="white" transform="translate(279.404) rotate(20)"/>
</clipPath>
<clipPath id="clip1_449_165">
<rect width="200" height="200" fill="white" transform="translate(0 165.404) rotate(-20)"/>
</clipPath>
</defs>
</svg>
